<mxfile host="Electron" modified="2024-07-12T09:10:43.422Z" agent="Mozilla/5.0 (Windows NT 10.0; Win64; x64) AppleWebKit/537.36 (KHTML, like Gecko) draw.io/22.1.16 Chrome/120.0.6099.109 Electron/28.1.0 Safari/537.36" etag="RjvQNYrWUD6L6AdAQVAm" version="22.1.16" type="device">
  <diagram name="Pagina-1" id="1ivvULd6SqNErC4kCiVV">
    <mxGraphModel dx="1687" dy="984" grid="1" gridSize="10" guides="1" tooltips="1" connect="1" arrows="1" fold="1" page="1" pageScale="1" pageWidth="850" pageHeight="1100" math="0" shadow="0">
      <root>
        <mxCell id="0" />
        <mxCell id="1" parent="0" />
        <mxCell id="xihzh0UQp3UVXtUTC6Pa-1" value="Preparazione gioco" style="swimlane;whiteSpace=wrap;html=1;" parent="1" vertex="1">
          <mxGeometry x="320" y="40" width="200" height="280" as="geometry" />
        </mxCell>
        <mxCell id="xihzh0UQp3UVXtUTC6Pa-2" value="inserimento nome" style="ellipse;whiteSpace=wrap;html=1;" parent="xihzh0UQp3UVXtUTC6Pa-1" vertex="1">
          <mxGeometry x="30" y="40" width="140" height="70" as="geometry" />
        </mxCell>
        <mxCell id="xihzh0UQp3UVXtUTC6Pa-3" value="definizione nuovo codice segreto" style="ellipse;whiteSpace=wrap;html=1;" parent="xihzh0UQp3UVXtUTC6Pa-1" vertex="1">
          <mxGeometry x="30" y="160" width="140" height="70" as="geometry" />
        </mxCell>
        <mxCell id="xihzh0UQp3UVXtUTC6Pa-4" value="Decoder" style="shape=umlActor;verticalLabelPosition=bottom;verticalAlign=top;html=1;" parent="1" vertex="1">
          <mxGeometry x="150" y="440" width="30" height="60" as="geometry" />
        </mxCell>
        <mxCell id="xihzh0UQp3UVXtUTC6Pa-5" value="" style="endArrow=open;endFill=1;endSize=12;html=1;rounded=0;exitX=0.5;exitY=0.5;exitDx=0;exitDy=0;exitPerimeter=0;" parent="1" source="xihzh0UQp3UVXtUTC6Pa-4" edge="1">
          <mxGeometry width="160" relative="1" as="geometry">
            <mxPoint x="300" y="220" as="sourcePoint" />
            <mxPoint x="320" y="110" as="targetPoint" />
            <Array as="points">
              <mxPoint x="280" y="470" />
              <mxPoint x="280" y="110" />
            </Array>
          </mxGeometry>
        </mxCell>
        <mxCell id="xihzh0UQp3UVXtUTC6Pa-8" value="Encoder" style="shape=umlActor;verticalLabelPosition=bottom;verticalAlign=top;html=1;" parent="1" vertex="1">
          <mxGeometry x="150" y="560" width="30" height="60" as="geometry" />
        </mxCell>
        <mxCell id="xihzh0UQp3UVXtUTC6Pa-9" value="" style="endArrow=open;endFill=1;endSize=12;html=1;rounded=0;exitX=0.5;exitY=0.5;exitDx=0;exitDy=0;exitPerimeter=0;" parent="1" source="xihzh0UQp3UVXtUTC6Pa-8" edge="1">
          <mxGeometry width="160" relative="1" as="geometry">
            <mxPoint x="175" y="240" as="sourcePoint" />
            <mxPoint x="320" y="230" as="targetPoint" />
            <Array as="points">
              <mxPoint x="240" y="590" />
              <mxPoint x="240" y="230" />
            </Array>
          </mxGeometry>
        </mxCell>
        <mxCell id="XBeqb5sK7N5P5WI1V8Ra-1" value="Esecuzione gioco" style="swimlane;whiteSpace=wrap;html=1;startSize=30;" parent="1" vertex="1">
          <mxGeometry x="320" y="360" width="200" height="450" as="geometry" />
        </mxCell>
        <mxCell id="XBeqb5sK7N5P5WI1V8Ra-2" value="scelta difficoltÃ " style="ellipse;whiteSpace=wrap;html=1;" parent="XBeqb5sK7N5P5WI1V8Ra-1" vertex="1">
          <mxGeometry x="30" y="50" width="140" height="70" as="geometry" />
        </mxCell>
        <mxCell id="XBeqb5sK7N5P5WI1V8Ra-3" value="inserimento sequenza" style="ellipse;whiteSpace=wrap;html=1;" parent="XBeqb5sK7N5P5WI1V8Ra-1" vertex="1">
          <mxGeometry x="30" y="160" width="140" height="70" as="geometry" />
        </mxCell>
        <mxCell id="XBeqb5sK7N5P5WI1V8Ra-4" value="valutazione sequenza" style="ellipse;whiteSpace=wrap;html=1;" parent="XBeqb5sK7N5P5WI1V8Ra-1" vertex="1">
          <mxGeometry x="30" y="255" width="140" height="70" as="geometry" />
        </mxCell>
        <mxCell id="XBeqb5sK7N5P5WI1V8Ra-5" value="definizione indizi" style="ellipse;whiteSpace=wrap;html=1;" parent="XBeqb5sK7N5P5WI1V8Ra-1" vertex="1">
          <mxGeometry x="30" y="340" width="140" height="70" as="geometry" />
        </mxCell>
        <mxCell id="XBeqb5sK7N5P5WI1V8Ra-6" value="Loop" style="shape=umlFrame;whiteSpace=wrap;html=1;pointerEvents=0;width=40;height=20;" parent="XBeqb5sK7N5P5WI1V8Ra-1" vertex="1">
          <mxGeometry x="20" y="140" width="160" height="290" as="geometry" />
        </mxCell>
        <mxCell id="XBeqb5sK7N5P5WI1V8Ra-7" value="" style="endArrow=open;endFill=1;endSize=12;html=1;rounded=0;exitX=0.5;exitY=0.5;exitDx=0;exitDy=0;exitPerimeter=0;" parent="1" source="xihzh0UQp3UVXtUTC6Pa-4" edge="1">
          <mxGeometry width="160" relative="1" as="geometry">
            <mxPoint x="175" y="120" as="sourcePoint" />
            <mxPoint x="320" y="440.4761904761905" as="targetPoint" />
            <Array as="points">
              <mxPoint x="280" y="470" />
              <mxPoint x="280" y="440" />
            </Array>
          </mxGeometry>
        </mxCell>
        <mxCell id="XBeqb5sK7N5P5WI1V8Ra-8" value="" style="endArrow=open;endFill=1;endSize=12;html=1;rounded=0;exitX=0.5;exitY=0.5;exitDx=0;exitDy=0;exitPerimeter=0;" parent="1" source="xihzh0UQp3UVXtUTC6Pa-4" edge="1">
          <mxGeometry width="160" relative="1" as="geometry">
            <mxPoint x="175" y="480" as="sourcePoint" />
            <mxPoint x="320" y="550" as="targetPoint" />
            <Array as="points">
              <mxPoint x="280" y="470" />
              <mxPoint x="280" y="550" />
            </Array>
          </mxGeometry>
        </mxCell>
        <mxCell id="XBeqb5sK7N5P5WI1V8Ra-9" value="" style="endArrow=open;endFill=1;endSize=12;html=1;rounded=0;exitX=0.5;exitY=0.5;exitDx=0;exitDy=0;exitPerimeter=0;" parent="1" source="xihzh0UQp3UVXtUTC6Pa-8" edge="1">
          <mxGeometry width="160" relative="1" as="geometry">
            <mxPoint x="280" y="600" as="sourcePoint" />
            <mxPoint x="320" y="650" as="targetPoint" />
            <Array as="points">
              <mxPoint x="240" y="590" />
              <mxPoint x="240" y="650" />
            </Array>
          </mxGeometry>
        </mxCell>
        <mxCell id="XBeqb5sK7N5P5WI1V8Ra-10" value="" style="endArrow=open;endFill=1;endSize=12;html=1;rounded=0;exitX=0.5;exitY=0.5;exitDx=0;exitDy=0;exitPerimeter=0;" parent="1" source="xihzh0UQp3UVXtUTC6Pa-8" edge="1">
          <mxGeometry width="160" relative="1" as="geometry">
            <mxPoint x="140" y="700" as="sourcePoint" />
            <mxPoint x="320" y="730" as="targetPoint" />
            <Array as="points">
              <mxPoint x="240" y="590" />
              <mxPoint x="240" y="730" />
            </Array>
          </mxGeometry>
        </mxCell>
        <mxCell id="75cknLtaG0_T82KUY-iW-7" value="Termine Partita &amp;lt;&amp;lt;Successo&amp;gt;&amp;gt;" style="swimlane;whiteSpace=wrap;html=1;" vertex="1" parent="1">
          <mxGeometry x="320" y="850" width="200" height="400" as="geometry" />
        </mxCell>
        <mxCell id="75cknLtaG0_T82KUY-iW-8" value="Individua il codice segreto" style="ellipse;whiteSpace=wrap;html=1;" vertex="1" parent="75cknLtaG0_T82KUY-iW-7">
          <mxGeometry x="30" y="40" width="140" height="70" as="geometry" />
        </mxCell>
        <mxCell id="75cknLtaG0_T82KUY-iW-10" value="segnalazione termine partita" style="ellipse;whiteSpace=wrap;html=1;" vertex="1" parent="75cknLtaG0_T82KUY-iW-7">
          <mxGeometry x="30" y="130" width="140" height="70" as="geometry" />
        </mxCell>
        <mxCell id="75cknLtaG0_T82KUY-iW-11" value="aggiornamento punteggio" style="ellipse;whiteSpace=wrap;html=1;" vertex="1" parent="75cknLtaG0_T82KUY-iW-7">
          <mxGeometry x="30" y="310" width="140" height="70" as="geometry" />
        </mxCell>
        <mxCell id="75cknLtaG0_T82KUY-iW-17" value="segnalazione tentativi utilizzati" style="ellipse;whiteSpace=wrap;html=1;" vertex="1" parent="75cknLtaG0_T82KUY-iW-7">
          <mxGeometry x="30" y="220" width="140" height="70" as="geometry" />
        </mxCell>
        <mxCell id="75cknLtaG0_T82KUY-iW-9" value="" style="endArrow=open;endFill=1;endSize=12;html=1;rounded=0;exitX=0.5;exitY=0.5;exitDx=0;exitDy=0;exitPerimeter=0;" edge="1" parent="1" source="xihzh0UQp3UVXtUTC6Pa-4">
          <mxGeometry width="160" relative="1" as="geometry">
            <mxPoint x="340" y="820" as="sourcePoint" />
            <mxPoint x="320" y="920" as="targetPoint" />
            <Array as="points">
              <mxPoint x="280" y="470" />
              <mxPoint x="280" y="920" />
            </Array>
          </mxGeometry>
        </mxCell>
        <mxCell id="75cknLtaG0_T82KUY-iW-12" value="Termine Partita &amp;lt;&amp;lt;Fallimento&amp;gt;&amp;gt;" style="swimlane;whiteSpace=wrap;html=1;" vertex="1" parent="1">
          <mxGeometry x="320" y="1290" width="200" height="400" as="geometry" />
        </mxCell>
        <mxCell id="75cknLtaG0_T82KUY-iW-13" value="termina i tentativi a disposizione" style="ellipse;whiteSpace=wrap;html=1;" vertex="1" parent="75cknLtaG0_T82KUY-iW-12">
          <mxGeometry x="30" y="40" width="140" height="70" as="geometry" />
        </mxCell>
        <mxCell id="75cknLtaG0_T82KUY-iW-14" value="segnalazione termine partita" style="ellipse;whiteSpace=wrap;html=1;" vertex="1" parent="75cknLtaG0_T82KUY-iW-12">
          <mxGeometry x="30" y="130" width="140" height="70" as="geometry" />
        </mxCell>
        <mxCell id="75cknLtaG0_T82KUY-iW-15" value="aggiornamento punteggio" style="ellipse;whiteSpace=wrap;html=1;" vertex="1" parent="75cknLtaG0_T82KUY-iW-12">
          <mxGeometry x="30" y="310" width="140" height="70" as="geometry" />
        </mxCell>
        <mxCell id="75cknLtaG0_T82KUY-iW-18" value="segnalazione codice segreto" style="ellipse;whiteSpace=wrap;html=1;" vertex="1" parent="75cknLtaG0_T82KUY-iW-12">
          <mxGeometry x="30" y="220" width="140" height="70" as="geometry" />
        </mxCell>
        <mxCell id="75cknLtaG0_T82KUY-iW-16" value="" style="endArrow=open;endFill=1;endSize=12;html=1;rounded=0;exitX=0.5;exitY=0.5;exitDx=0;exitDy=0;exitPerimeter=0;" edge="1" parent="1" source="xihzh0UQp3UVXtUTC6Pa-4">
          <mxGeometry width="160" relative="1" as="geometry">
            <mxPoint x="175" y="480" as="sourcePoint" />
            <mxPoint x="320" y="1360" as="targetPoint" />
            <Array as="points">
              <mxPoint x="280" y="470" />
              <mxPoint x="280" y="1360" />
            </Array>
          </mxGeometry>
        </mxCell>
        <mxCell id="75cknLtaG0_T82KUY-iW-19" value="Sistema" style="shape=umlActor;verticalLabelPosition=bottom;verticalAlign=top;html=1;" vertex="1" parent="1">
          <mxGeometry x="630" y="1240" width="30" height="60" as="geometry" />
        </mxCell>
        <mxCell id="75cknLtaG0_T82KUY-iW-22" value="" style="endArrow=open;endFill=1;endSize=12;html=1;rounded=0;exitX=0.5;exitY=0.5;exitDx=0;exitDy=0;exitPerimeter=0;" edge="1" parent="1" source="75cknLtaG0_T82KUY-iW-19">
          <mxGeometry width="160" relative="1" as="geometry">
            <mxPoint x="610" y="1120" as="sourcePoint" />
            <mxPoint x="520" y="1020" as="targetPoint" />
            <Array as="points">
              <mxPoint x="560" y="1270" />
              <mxPoint x="560" y="1020" />
            </Array>
          </mxGeometry>
        </mxCell>
        <mxCell id="75cknLtaG0_T82KUY-iW-23" value="" style="endArrow=open;endFill=1;endSize=12;html=1;rounded=0;exitX=0.5;exitY=0.5;exitDx=0;exitDy=0;exitPerimeter=0;" edge="1" parent="1" source="75cknLtaG0_T82KUY-iW-19">
          <mxGeometry width="160" relative="1" as="geometry">
            <mxPoint x="655" y="1280" as="sourcePoint" />
            <mxPoint x="520" y="1110" as="targetPoint" />
            <Array as="points">
              <mxPoint x="560" y="1270" />
              <mxPoint x="560" y="1110" />
            </Array>
          </mxGeometry>
        </mxCell>
        <mxCell id="75cknLtaG0_T82KUY-iW-24" value="" style="endArrow=open;endFill=1;endSize=12;html=1;rounded=0;exitX=0.5;exitY=0.5;exitDx=0;exitDy=0;exitPerimeter=0;" edge="1" parent="1" source="75cknLtaG0_T82KUY-iW-19">
          <mxGeometry width="160" relative="1" as="geometry">
            <mxPoint x="655" y="1280" as="sourcePoint" />
            <mxPoint x="520" y="1200" as="targetPoint" />
            <Array as="points">
              <mxPoint x="560" y="1270" />
              <mxPoint x="560" y="1200" />
            </Array>
          </mxGeometry>
        </mxCell>
        <mxCell id="75cknLtaG0_T82KUY-iW-25" value="" style="endArrow=open;endFill=1;endSize=12;html=1;rounded=0;exitX=0.5;exitY=0.5;exitDx=0;exitDy=0;exitPerimeter=0;" edge="1" parent="1" source="75cknLtaG0_T82KUY-iW-19">
          <mxGeometry width="160" relative="1" as="geometry">
            <mxPoint x="655" y="1280" as="sourcePoint" />
            <mxPoint x="520" y="1460" as="targetPoint" />
            <Array as="points">
              <mxPoint x="560" y="1270" />
              <mxPoint x="560" y="1460" />
            </Array>
          </mxGeometry>
        </mxCell>
        <mxCell id="75cknLtaG0_T82KUY-iW-26" value="" style="endArrow=open;endFill=1;endSize=12;html=1;rounded=0;exitX=0.5;exitY=0.5;exitDx=0;exitDy=0;exitPerimeter=0;" edge="1" parent="1" source="75cknLtaG0_T82KUY-iW-19">
          <mxGeometry width="160" relative="1" as="geometry">
            <mxPoint x="655" y="1280" as="sourcePoint" />
            <mxPoint x="520" y="1550" as="targetPoint" />
            <Array as="points">
              <mxPoint x="560" y="1270" />
              <mxPoint x="560" y="1550" />
            </Array>
          </mxGeometry>
        </mxCell>
        <mxCell id="75cknLtaG0_T82KUY-iW-27" value="" style="endArrow=open;endFill=1;endSize=12;html=1;rounded=0;exitX=0.5;exitY=0.5;exitDx=0;exitDy=0;exitPerimeter=0;" edge="1" parent="1" source="75cknLtaG0_T82KUY-iW-19">
          <mxGeometry width="160" relative="1" as="geometry">
            <mxPoint x="655" y="1280" as="sourcePoint" />
            <mxPoint x="520" y="1640" as="targetPoint" />
            <Array as="points">
              <mxPoint x="560" y="1270" />
              <mxPoint x="560" y="1640" />
            </Array>
          </mxGeometry>
        </mxCell>
      </root>
    </mxGraphModel>
  </diagram>
</mxfile>
